{
  "asset": {
    "version": "2.0",
    "generator": "THREE.GLTFExporter r169"
  },
  "scenes": [
    {
      "name": "Scene",
      "nodes": [
        1
      ]
    }
  ],
  "scene": 0,
  "nodes": [
    {
      "name": "Mesh_0",
      "extras": {
        "name": "Mesh_0"
      },
      "mesh": 0
    },
    {
      "name": "The_object_is_a_color_1024041806_refine.glb",
      "children": [
        0
      ]
    }
  ],
  "bufferViews": [
    {
      "buffer": 0,
      "byteOffset": 0,
      "byteLength": 454560,
      "target": 34962,
      "byteStride": 12
    },
    {
      "buffer": 0,
      "byteOffset": 454560,
      "byteLength": 454560,
      "target": 34962,
      "byteStride": 12
    },
    {
      "buffer": 0,
      "byteOffset": 909120,
      "byteLength": 303040,
      "target": 34962,
      "byteStride": 8
    },
    {
      "buffer": 0,
      "byteOffset": 1212160,
      "byteLength": 355944,
      "target": 34963
    }
  ],
  "buffers": [
    {
      "byteLength": 1568104,
      "uri": "data:application/octet-stream;base64,"
    }
  ],
  "accessors": [
    {
      "bufferView": 0,
      "componentType": 5126,
      "count": 37880,
      "max": [
        0.5519689917564392,
        0.9972310066223145,
        0.2599070072174072
      ],
      "min": [
        -0.5570859909057617,
        -1.001520037651062,
        -0.25816500186920166
      ],
      "type": "VEC3"
    },
    {
      "bufferView": 1,
      "componentType": 5126,
      "count": 37880,
      "max": [
        0.9997015595436096,
        0.9999843835830688,
        0.9999815225601196
      ],
      "min": [
        -0.9999852180480957,
        -0.9999996423721313,
        -0.9999983310699463
      ],
      "type": "VEC3"
    },
    {
      "bufferView": 2,
      "componentType": 5126,
      "count": 37880,
      "max": [
        0.99853515625,
        0.9990234375
      ],
      "min": [
        0.0011072158813476562,
        0.0011072158813476562
      ],
      "type": "VEC2"
    },
    {
      "bufferView": 3,
      "componentType": 5123,
      "count": 177972,
      "max": [
        37879
      ],
      "min": [
        0
      ],
      "type": "SCALAR"
    }
  ],
  "materials": [
    {
      "pbrMetallicRoughness": {
        "metallicFactor": 0,
        "roughnessFactor": 0.800000011920929,
        "baseColorTexture": {
          "index": 0,
          "texCoord": 0
        }
      },
      "doubleSided": true,
      "name": "Material_0"
    }
  ],
  "textures": [
    {
      "sampler": 0,
      "source": 0,
      "name": "Image_0"
    }
  ],
  "samplers": [
    {
      "magFilter": 9729,
      "minFilter": 9987,
      "wrapS": 10497,
      "wrapT": 10497
    }
  ],
  "images": [
    {
      "mimeType": "image/jpeg",
      "uri": "data:image/jpeg;base64,"
    }
  ],
  "meshes": [
    {
      "primitives": [
        {
          "mode": 4,
          "attributes": {
            "POSITION": 0,
            "NORMAL": 1,
            "TEXCOORD_0": 2
          },
          "indices": 3,
          "material": 0
        }
      ]
    }
  ]
}